<svg xmlns="http://www.w3.org/2000/svg" width="576" height="512" style="">

 <g class="currentLayer" style="">
  <title>Layer 1</title>
  <path class="" id="svg_3" d="m603,469l-598,-467.49a16,16 0 0 0 -22.49,2.49l-10,12.49a16,16 0 0 0 2.49,22.51l598,467.49a16,16 0 0 0 22.49,-2.49l10,-12.49a16,16 0 0 0 -2.49,-22.51zm-337.21,-324.53l134.79,105.38c-2.22,-59.94 -51.1,-107.85 -111.58,-107.85a112.26,112.26 0 0 0 -23.21,2.47zm46.42,219.07l-134.79,-105.38c2.23,59.93 51.11,107.84 111.58,107.84a113,113 0 0 0 23.21,-2.46zm-23.21,-253.54c98.65,0 189.09,55 237.93,144a285.53,285.53 0 0 1 -44,60.2l37.74,29.5a333.7,333.7 0 0 0 52.9,-75.11a32.35,32.35 0 0 0 0,-29.19c-54.28,-105.81 -161.64,-177.4 -284.57,-177.4c-36.7,0 -71.71,7 -104.63,18.81l46.41,36.29c18.94,-4.3 38.34,-7.1 58.22,-7.1zm0,288c-98.65,0 -189.08,-55 -237.93,-144a285.47,285.47 0 0 1 44.05,-60.19l-37.74,-29.5a333.6,333.6 0 0 0 -52.89,75.1a32.35,32.35 0 0 0 0,29.19c54.23,105.81 161.59,177.4 284.51,177.4c36.7,0 71.71,-7.05 104.63,-18.81l-46.41,-36.28c-18.94,4.29 -38.33,7.09 -58.22,7.09z" fill="#8257e5" fill-opacity="1"/>
 </g>
 <g style="">
  <title>Layer 2</title>
  <rect fill="none" y="0" x="0" height="100%" width="100%" id="backgroundrect"/>
 </g>
 <g style="">
  <title>background</title>
  <rect fill="none" id="canvas_background" height="602" width="802" y="-1" x="-1"/>
 </g>
</svg>