<svg width="456.556" height="456.556" xmlns="http://www.w3.org/2000/svg">

 <g>
  <title>background</title>
  <rect fill="none" id="canvas_background" height="602" width="802" y="-1" x="-1"/>
 </g>
 <g>
  <title>Layer 1</title>
  <g id="svg_1">
   <path fill="#d4c2ff" id="svg_2" d="m228.278,249.49c-7.413,0 -13.421,-6.001 -13.428,-13.414l-0.238,-222.634c-0.007,-7.413 6.001,-13.435 13.414,-13.442c0.007,0 0.007,0 0.014,0c7.413,0 13.421,6.001 13.428,13.414l0.238,222.634c0.007,7.413 -6.001,13.435 -13.414,13.442c-0.007,0 -0.007,0 -0.014,0z"/>
   <path fill="#d4c2ff" id="svg_3" d="m228.278,456.556c-109.194,0 -198.03,-88.835 -198.03,-198.03c0,-86.43 55.258,-162.221 137.498,-188.602c7.078,-2.28 14.624,1.63 16.883,8.686c2.266,7.057 -1.623,14.617 -8.686,16.883c-71.078,22.8 -118.839,88.318 -118.839,163.033c0,94.388 76.785,171.174 171.174,171.174s171.174,-76.785 171.174,-171.174c0,-74.715 -47.761,-140.233 -118.839,-163.033c-7.064,-2.266 -10.952,-9.826 -8.686,-16.883c2.259,-7.064 9.819,-10.959 16.883,-8.686c82.24,26.381 137.498,102.173 137.498,188.602c0,109.195 -88.836,198.03 -198.03,198.03z"/>
  </g>
  <g id="svg_4"/>
  <g id="svg_5"/>
  <g id="svg_6"/>
  <g id="svg_7"/>
  <g id="svg_8"/>
  <g id="svg_9"/>
  <g id="svg_10"/>
  <g id="svg_11"/>
  <g id="svg_12"/>
  <g id="svg_13"/>
  <g id="svg_14"/>
  <g id="svg_15"/>
  <g id="svg_16"/>
  <g id="svg_17"/>
  <g id="svg_18"/>
 </g>
</svg>